<svg width="124" height="24" viewBox="0 0 124 24" fill="none" xmlns="http://www.w3.org/2000/svg">
<path d="M20.6446 11.6539C20.6446 11.3914 20.6064 11.1444 20.5223 10.9206C20.4382 10.6967 20.3236 10.496 20.1783 10.3262C20.0255 10.1563 19.8496 10.0251 19.6356 9.93247C19.4216 9.83983 19.1769 9.7858 18.9094 9.7858C18.6342 9.7858 18.3896 9.83211 18.1679 9.93247C17.9462 10.0251 17.7475 10.1563 17.5869 10.3262C17.4264 10.496 17.3041 10.689 17.2124 10.9206C17.1206 11.1444 17.0824 11.3914 17.0824 11.6539V16.8645C17.0824 16.9263 17.0671 16.9881 17.0289 17.0421C16.9983 17.0961 16.9525 17.1502 16.899 17.1888C16.8455 17.2274 16.7843 17.266 16.7231 17.2891C16.662 17.3123 16.5932 17.3277 16.5397 17.3277H14.3993C14.147 17.3277 14.0171 17.2042 14.0171 16.9495V7.4082C14.0171 7.15346 14.147 7.02995 14.3993 7.02995H15.8823C16.0122 7.02995 16.1269 7.07626 16.2416 7.1689C16.3562 7.26153 16.425 7.3696 16.4556 7.49312L16.6773 8.41945C16.8837 8.14927 17.1054 7.91769 17.3576 7.73242C17.6022 7.53943 17.8621 7.38504 18.1373 7.26925C18.4125 7.14574 18.6877 7.06083 18.9782 7.00679C19.2687 6.95275 19.5515 6.92188 19.842 6.92188C20.0637 6.92188 20.3159 6.95275 20.5911 7.00679C20.8663 7.06854 21.1492 7.16118 21.4243 7.30013C21.7072 7.43908 21.9747 7.61663 22.2423 7.84049C22.5098 8.06436 22.7468 8.33454 22.9532 8.66647C23.1596 8.99069 23.3278 9.37666 23.4501 9.82439C23.5724 10.2644 23.6335 10.7739 23.6335 11.3451V16.9649C23.6335 17.2119 23.5112 17.3354 23.2666 17.3354H21.0268C20.7746 17.3354 20.6446 17.2119 20.6446 16.9649V11.6539V11.6539Z" fill="#2C43DD"/>
<path fill-rule="evenodd" clip-rule="evenodd" d="M35.686 17.3275C35.9242 17.3275 36.0471 17.204 36.0471 16.9647H36.0548V7.37714C36.0548 7.13783 35.9319 7.01432 35.6937 7.01432H33.9879C33.8727 7.01432 33.7958 7.0452 33.7574 7.09924C33.719 7.15327 33.6806 7.24591 33.6345 7.37714L33.3195 8.26488C32.966 7.84802 32.5434 7.51609 32.0594 7.26906C31.5676 7.02976 31.0221 6.90625 30.3997 6.90625C29.6698 6.90625 28.9936 7.0452 28.3635 7.3231C27.7335 7.601 27.188 7.97926 26.7269 8.45786C26.2659 8.93647 25.8971 9.49999 25.6359 10.1407C25.3669 10.7891 25.2363 11.4762 25.2363 12.2018C25.2363 12.9969 25.3746 13.7148 25.6589 14.3633C25.9432 15.0117 26.3197 15.5675 26.7961 16.0307C27.2725 16.4938 27.818 16.8489 28.4404 17.1037C29.0628 17.3584 29.7082 17.4819 30.3843 17.4819C30.9222 17.4819 31.4293 17.3816 31.898 17.1654C32.3667 16.957 32.7816 16.6559 33.1504 16.27L33.258 16.5556C33.2666 16.5786 33.2762 16.6037 33.2865 16.6306C33.3039 16.6759 33.3232 16.7261 33.3425 16.7794C33.3809 16.8721 33.4193 16.9493 33.4655 17.0342C33.5116 17.1191 33.573 17.1886 33.6345 17.2426C33.696 17.2966 33.7728 17.3275 33.8573 17.3275H35.686ZM32.2669 10.4109C32.4897 10.6425 32.6664 10.9126 32.7894 11.2214C32.9123 11.5302 32.9738 11.8544 32.9584 12.1864C32.9584 12.526 32.8969 12.858 32.774 13.1667C32.6434 13.4755 32.4743 13.7457 32.2515 13.9773C32.0364 14.2011 31.7751 14.3864 31.4755 14.5254C31.1758 14.6643 30.8531 14.7338 30.5073 14.7338C30.1693 14.7338 29.8466 14.672 29.5546 14.5408C29.2626 14.4096 29.009 14.232 28.7939 14.0082C28.5864 13.7766 28.4174 13.5064 28.2945 13.1976C28.1715 12.8888 28.1101 12.5492 28.1101 12.1864C28.1101 11.8081 28.1792 11.4607 28.3098 11.152C28.4405 10.8432 28.6172 10.573 28.84 10.3491C29.0628 10.1253 29.3164 9.95544 29.6084 9.83192C29.9003 9.70841 30.2077 9.64666 30.5227 9.64666C30.8685 9.64666 31.1912 9.71613 31.4908 9.85508C31.7905 9.99403 32.0441 10.1793 32.2669 10.4109Z" fill="#2C43DD"/>
<path d="M118.637 14.1478C118.211 14.6341 117.591 14.9274 116.824 14.9352C115.382 14.9583 114.143 13.8544 114.05 12.4186C113.941 10.7512 115.142 9.48521 116.777 9.48521C117.568 9.48521 118.203 9.77855 118.637 10.2726C118.792 10.4424 119.04 10.4965 119.242 10.3807L120.761 9.50065C121.016 9.35398 121.078 9.01432 120.885 8.79046C119.823 7.54762 118.211 6.77568 116.467 6.83743C113.569 6.93779 111.36 9.3617 111.384 12.2488C111.407 15.1899 113.693 17.5752 116.653 17.5752C118.335 17.5752 119.869 16.811 120.892 15.6145C121.078 15.3906 121.016 15.0509 120.761 14.9043L119.234 14.032C119.032 13.9316 118.784 13.9779 118.637 14.1478Z" fill="#2C43DD"/>
<path d="M69.7132 11.5534C69.7132 11.2909 69.6756 11.0516 69.6005 10.8277C69.5253 10.6116 69.4201 10.4186 69.2924 10.2642C69.1571 10.1098 68.9994 9.98632 68.8115 9.9014C68.6236 9.81649 68.4208 9.77789 68.2029 9.77789C67.9849 9.77789 67.7821 9.81649 67.6017 9.9014C67.4214 9.98632 67.2636 10.1021 67.1283 10.2565C67.0006 10.4109 66.8954 10.5962 66.8278 10.8123C66.7601 11.0284 66.7226 11.2755 66.7226 11.5456V16.9416C66.7301 17.0728 66.7 17.1654 66.6249 17.2272C66.5573 17.2889 66.4596 17.3198 66.3394 17.3198H64.0701C63.8221 17.3198 63.7019 17.1963 63.7019 16.9416V7.39258C63.7019 7.13783 63.8221 7.01432 64.0701 7.01432H65.5053C65.633 7.01432 65.7457 7.06064 65.8585 7.15327C65.9712 7.24591 66.0388 7.35398 66.0688 7.47749L66.2868 8.38839C66.6549 7.85574 67.0682 7.47749 67.5416 7.25363C68.015 7.02976 68.5335 6.91397 69.0895 6.91397C69.3149 6.91397 69.5479 6.93713 69.7958 6.98344C70.0438 7.02976 70.2918 7.11468 70.5322 7.23047C70.7727 7.34626 71.0131 7.50837 71.2386 7.70907C71.464 7.90978 71.6669 8.16452 71.8397 8.46558C72.2379 7.96382 72.6963 7.57784 73.2148 7.30766C73.7332 7.0452 74.2818 6.90625 74.8604 6.90625C75.484 6.90625 76.025 7.02976 76.4834 7.27678C76.9418 7.52381 77.325 7.85574 77.6256 8.28803C77.9261 8.7126 78.1515 9.20665 78.3018 9.77789C78.4521 10.3414 78.5272 10.9435 78.5272 11.5842V16.957C78.5272 17.204 78.407 17.3275 78.1591 17.3275H75.9424C75.7019 17.3275 75.5817 17.204 75.5817 16.957V11.5611C75.5817 11.2986 75.5517 11.0593 75.484 10.8355C75.4239 10.6193 75.3262 10.434 75.206 10.2797C75.0858 10.1253 74.9355 10.0018 74.7552 9.91684C74.5748 9.83193 74.3795 9.78561 74.154 9.78561C73.9286 9.78561 73.7257 9.82421 73.5379 9.90912C73.35 9.99404 73.1922 10.1098 73.057 10.2719C72.9217 10.4263 72.8165 10.6116 72.7414 10.8277C72.6662 11.0439 72.6287 11.2832 72.6287 11.5534L72.6362 16.9493C72.6362 17.1963 72.516 17.3198 72.2755 17.3198H70.0513C69.8109 17.3198 69.6907 17.1963 69.6907 16.9493V11.5534H69.7132Z" fill="#2C43DD"/>
<path fill-rule="evenodd" clip-rule="evenodd" d="M90.9807 17.3275C91.2189 17.3275 91.3418 17.204 91.3418 16.9647H91.3495V7.37714C91.3495 7.13783 91.2266 7.01432 90.9884 7.01432H89.2826C89.1674 7.01432 89.0905 7.0452 89.0521 7.09924C89.0137 7.15327 88.9753 7.24591 88.9292 7.37714L88.6141 8.26488C88.2607 7.84802 87.8381 7.51609 87.354 7.26906C86.8623 7.02976 86.3167 6.90625 85.6944 6.90625C84.9644 6.90625 84.2883 7.0452 83.6582 7.3231C83.0282 7.601 82.4826 7.97926 82.0216 8.45786C81.5606 8.93647 81.1918 9.49999 80.9306 10.1407C80.6616 10.7891 80.531 11.4762 80.531 12.2018C80.531 12.9969 80.6693 13.7148 80.9536 14.3633C81.2379 15.0117 81.6144 15.5675 82.0908 16.0307C82.5672 16.4938 83.1127 16.8489 83.7351 17.1037C84.3574 17.3584 85.0029 17.4819 85.679 17.4819C86.2169 17.4819 86.724 17.3816 87.1927 17.1654C87.6614 16.957 88.0763 16.6559 88.4451 16.27L88.5527 16.5556C88.5613 16.5786 88.5709 16.6037 88.5812 16.6306C88.5986 16.6759 88.6179 16.7261 88.6372 16.7794C88.6756 16.8721 88.714 16.9493 88.7601 17.0342C88.8062 17.1191 88.8677 17.1886 88.9292 17.2426C88.9906 17.2966 89.0675 17.3275 89.152 17.3275H90.9807ZM87.5691 10.4109C87.7843 10.6425 87.961 10.9126 88.0839 11.2214C88.2069 11.5302 88.276 11.8544 88.253 12.1864C88.253 12.526 88.1915 12.858 88.0686 13.1667C87.9456 13.4755 87.7766 13.7457 87.5538 13.9773C87.3386 14.2011 87.0774 14.3864 86.7777 14.5254C86.4781 14.6643 86.1553 14.7338 85.8096 14.7338C85.4715 14.7338 85.1488 14.672 84.8568 14.5408C84.5648 14.4096 84.3113 14.232 84.0961 14.0082C83.8887 13.7766 83.7196 13.5064 83.5967 13.1976C83.4738 12.8888 83.4123 12.5492 83.4123 12.1864C83.4123 11.8081 83.4815 11.4607 83.6121 11.152C83.7427 10.8432 83.9194 10.573 84.1422 10.3491C84.3651 10.1253 84.6186 9.95544 84.9106 9.83192C85.2026 9.70841 85.5099 9.64666 85.825 9.64666C86.1707 9.64666 86.4934 9.71613 86.7931 9.85508C87.0927 9.99403 87.3463 10.1793 87.5691 10.4109Z" fill="#2C43DD"/>
<path fill-rule="evenodd" clip-rule="evenodd" d="M103.336 18.0974C103.626 17.4104 103.77 16.5921 103.77 15.6504H103.763V7.41369C103.763 7.26702 103.725 7.16667 103.656 7.11263C103.588 7.05859 103.496 7.03543 103.382 7.03543H101.874C101.729 7.03543 101.63 7.07403 101.585 7.14351C101.539 7.2207 101.486 7.33649 101.425 7.50632L101.158 8.25511C100.8 7.84598 100.382 7.51404 99.9017 7.26702C99.422 7.02 98.8813 6.89648 98.2797 6.89648C97.6248 6.89648 97.0003 7.03543 96.4063 7.31334C95.8123 7.59896 95.2868 7.97721 94.8375 8.45582C94.3806 8.93442 94.0227 9.49794 93.7562 10.1309C93.4896 10.7639 93.3525 11.4432 93.3525 12.1612C93.3525 12.9177 93.4896 13.597 93.7562 14.2223C94.0303 14.8398 94.3882 15.3725 94.8375 15.8202C95.2868 16.2602 95.8123 16.6076 96.4063 16.8546C97.0003 17.1016 97.6248 17.2251 98.2797 17.2251C98.7899 17.2251 99.2621 17.1171 99.7037 16.9086C100.145 16.6925 100.549 16.4069 100.899 16.044V16.2602C100.899 16.6076 100.831 16.9086 100.686 17.1788C100.549 17.449 100.359 17.6806 100.13 17.8658C99.9017 18.0588 99.6352 18.1978 99.3458 18.2981C99.0564 18.3985 98.7594 18.4448 98.4624 18.4448C97.9446 18.4448 97.5105 18.383 97.1602 18.2595C96.8023 18.136 96.4977 17.9585 96.2311 17.7269C96.1321 17.642 96.0255 17.5957 95.9189 17.5957C95.7971 17.5957 95.6828 17.6651 95.5838 17.8041L94.67 19.155C94.6091 19.2476 94.571 19.3325 94.5481 19.4097C94.5253 19.4792 94.5634 19.5718 94.67 19.6722C94.9289 19.9269 95.2183 20.1508 95.5305 20.3361C95.8428 20.5213 96.1778 20.6757 96.5205 20.7915C96.8632 20.9073 97.2135 20.9999 97.5791 21.054C97.9446 21.108 98.3025 21.1389 98.6528 21.1389C99.3001 21.1389 99.9322 21.0308 100.549 20.8147C101.166 20.5908 101.707 20.2589 102.186 19.8111C102.666 19.3557 103.047 18.7922 103.336 18.0974ZM100.351 10.3697C100.572 10.609 100.747 10.8791 100.877 11.1879C101.006 11.5044 101.067 11.8364 101.067 12.176C101.067 12.5388 100.998 12.8708 100.869 13.1795C100.739 13.4883 100.564 13.7585 100.343 13.9824C100.123 14.2062 99.8637 14.3838 99.5667 14.515C99.2697 14.6462 98.9575 14.708 98.6224 14.708C98.2645 14.708 97.937 14.6462 97.6477 14.515C97.3583 14.3838 97.107 14.2062 96.9014 13.9824C96.6957 13.7585 96.5434 13.496 96.4292 13.1873C96.315 12.8785 96.2617 12.5543 96.2617 12.1992C96.2617 11.8441 96.315 11.5121 96.4216 11.2034C96.5282 10.8946 96.6805 10.6167 96.8785 10.3851C97.0765 10.1535 97.3202 9.96824 97.602 9.82929C97.8913 9.69034 98.2112 9.62087 98.5691 9.62087C98.9347 9.62087 99.2621 9.69034 99.5667 9.82157C99.8637 9.9528 100.13 10.1381 100.351 10.3697Z" fill="#2C43DD"/>
<path fill-rule="evenodd" clip-rule="evenodd" d="M106.325 3.19299C106.222 3.32422 106.175 3.47861 106.175 3.67159V5.20777C106.175 5.43935 106.238 5.59374 106.365 5.67093C106.492 5.74813 106.659 5.78673 106.857 5.78673H108.761C108.96 5.78673 109.118 5.74813 109.221 5.66321C109.324 5.58602 109.38 5.43163 109.38 5.20005V3.67159C109.38 3.46317 109.332 3.30106 109.237 3.17755C109.142 3.06176 108.983 3 108.761 3H106.857C106.603 3 106.421 3.06176 106.325 3.19299ZM106.309 7.12163C106.23 7.17566 106.19 7.2683 106.19 7.38409V16.9717C106.19 17.211 106.317 17.3268 106.555 17.3268H109.015C109.261 17.3268 109.38 17.2032 109.38 16.9717V7.39181C109.38 7.28374 109.348 7.19882 109.277 7.13707C109.205 7.06759 109.118 7.03671 109.015 7.03671H106.555C106.468 7.03671 106.389 7.05987 106.309 7.12163Z" fill="#2C43DD"/>
<path fill-rule="evenodd" clip-rule="evenodd" d="M43.457 17.6986C43.7633 17.6986 44.0849 17.6446 44.3912 17.5751C44.6975 17.5056 44.9349 17.4362 45.2335 17.3204C45.5322 17.2046 45.8079 17.0656 46.0606 16.919C46.1831 16.8418 46.2903 16.78 46.3822 16.7105C46.4894 16.6411 46.6043 16.5407 46.6961 16.4558C46.7957 16.3709 46.8646 16.2937 46.8723 16.2165C46.8799 16.1393 46.8493 16.1007 46.7804 15.9849L39.0232 9.70898C38.9237 9.63178 38.7782 9.64722 38.6939 9.74757C38.6786 9.76301 38.671 9.77845 38.6633 9.79389C38.5791 9.97916 38.5101 10.1413 38.4642 10.2571C38.3647 10.4964 38.2728 10.7434 38.2038 10.9981C38.089 11.4304 38.0583 11.8936 38.0583 12.3568C38.0583 13.1441 38.2192 13.8543 38.5025 14.5182C38.6786 14.9273 38.916 15.2901 39.161 15.6298C39.3065 15.8382 39.5363 16.0775 39.7201 16.2551C39.9957 16.5253 40.302 16.726 40.6083 16.919C40.8304 17.0656 41.0908 17.1814 41.3741 17.2972C41.7493 17.4516 42.1552 17.5365 42.5381 17.6214C42.8214 17.6832 43.143 17.6909 43.457 17.6986Z" fill="#FF4338"/>
<path fill-rule="evenodd" clip-rule="evenodd" d="M44.2352 11.9781L47.2138 8.75133C47.3001 8.6587 47.2922 8.50431 47.1982 8.41939V8.41939C46.8219 8.08746 46.5946 7.89447 46.5005 7.84044C46.3359 7.73236 46.1713 7.62429 45.991 7.52394C45.6226 7.32323 45.1915 7.1534 44.6193 7.04533C44.0863 6.94498 43.5454 6.92954 43.2632 6.93726C42.981 6.94498 42.4402 6.98357 42.0325 7.12253C41.962 7.14568 41.8366 7.17656 41.7112 7.22288C41.5466 7.27691 41.3819 7.33867 41.233 7.40815C40.9665 7.53166 40.8097 7.60113 40.5511 7.77096C40.4413 7.84044 40.2375 7.96395 40.018 8.14921C39.971 8.18781 39.8848 8.26501 39.7437 8.38852C39.6418 8.47343 39.6339 8.6201 39.7202 8.72045C39.728 8.72817 39.7358 8.74361 39.7515 8.75133L43.9216 12.0012C44.0079 12.0784 44.149 12.0707 44.2352 11.9781Z" fill="#0ACAB3"/>
<path d="M61.9868 16.7324L57.6969 11.2438L61.1555 7.65428C61.2104 7.60797 61.2339 7.54621 61.2418 7.48445C61.2496 7.4227 61.2418 7.36094 61.2104 7.29919C61.179 7.23743 61.132 7.1834 61.0614 7.1448C60.9908 7.1062 60.9045 7.08304 60.8026 7.08304H58.3871C58.2537 7.08304 58.1439 7.09848 58.0577 7.12164C57.9636 7.1448 57.8616 7.22199 57.7518 7.3455L54.803 10.5954V4.43527C54.803 4.20368 54.6854 4.08789 54.4501 4.08789H52.0346C51.7993 4.08789 51.6816 4.20368 51.6816 4.43527V9.02063C51.7365 9.31397 51.9012 9.66906 52.2228 10.0319C52.5443 10.3638 52.8345 10.6494 53.1247 10.8347C53.3129 10.9582 53.3129 11.2207 53.1247 11.3442C52.9208 11.4754 52.7169 11.653 52.4973 11.8691H52.5051C52.4424 11.9231 52.3875 11.9772 52.3326 12.0312C52.309 12.0544 52.2855 12.0775 52.2698 12.1007C51.9169 12.4789 51.7365 12.8495 51.6816 13.166V17.018C51.6816 17.2496 51.7993 17.3654 52.0346 17.3654H54.4501C54.6854 17.3654 54.803 17.2496 54.803 17.018V14.2158L55.7598 13.2432L58.5047 17.0026C58.5988 17.1338 58.6772 17.2187 58.7478 17.2727C58.8184 17.3268 58.9125 17.3499 59.0302 17.3499H61.7359C61.8143 17.3499 61.8849 17.3345 61.9398 17.2959C61.9947 17.265 62.0417 17.2187 62.0652 17.1569C62.0966 17.0952 62.1045 17.0334 62.0966 16.964C62.0809 16.8868 62.0496 16.8096 61.9868 16.7324Z" fill="#2C43DD"/>
<path d="M51.0021 10.1256C51.3447 10.4806 51.7692 10.7894 52.015 10.9515C52.1044 11.0133 52.1044 11.1445 52.015 11.2063C51.7767 11.3684 51.3447 11.6772 51.0021 12.0323C50.6744 12.3719 50.384 13.0898 50.2201 13.8155C50.1829 13.9698 49.9744 13.9698 49.9371 13.8155C49.7733 13.0975 49.4828 12.3719 49.1551 12.0323C48.8125 11.6772 48.388 11.3684 48.1422 11.2063C48.0529 11.1445 48.0529 11.0133 48.1422 10.9515C48.3805 10.7894 48.8125 10.4806 49.1551 10.1256C49.4828 9.78589 49.7733 9.06798 49.9371 8.34235C49.9744 8.18797 50.1829 8.18797 50.2201 8.34235C50.384 9.06798 50.667 9.78589 51.0021 10.1256Z" fill="#FFD400"/>
<path d="M49.3211 14.6259C49.5629 14.8574 49.8611 15.0581 50.0304 15.1585C50.0948 15.1971 50.0948 15.282 50.0304 15.3206C49.8611 15.4287 49.5629 15.6294 49.3211 15.8533C49.0954 16.0694 48.8939 16.5403 48.773 17.0035C48.7489 17.1038 48.6038 17.1038 48.5796 17.0035C48.4668 16.5403 48.2653 16.0694 48.0315 15.8533C47.7898 15.6217 47.4915 15.421 47.3223 15.3206C47.2578 15.282 47.2578 15.1971 47.3223 15.1585C47.4915 15.0504 47.7898 14.8497 48.0315 14.6259C48.2572 14.4097 48.4587 13.9388 48.5796 13.4757C48.6038 13.3753 48.7489 13.3753 48.773 13.4757C48.8859 13.9388 49.0874 14.402 49.3211 14.6259Z" fill="#FFD400"/>
<path d="M46.7324 12.0699C46.9023 12.2552 47.1217 12.425 47.2421 12.5099C47.2846 12.5408 47.2846 12.6103 47.2421 12.6412C47.1217 12.7261 46.9094 12.8959 46.7324 13.0812C46.5695 13.2587 46.4209 13.6447 46.343 14.0229C46.3289 14.1079 46.2156 14.1079 46.2014 14.0229C46.1165 13.637 45.9749 13.2587 45.8121 13.0812C45.6422 12.8959 45.4227 12.7261 45.3024 12.6412C45.2599 12.6103 45.2599 12.5408 45.3024 12.5099C45.4227 12.425 45.6351 12.2552 45.8121 12.0699C45.9749 11.8924 46.1236 11.5064 46.2014 11.1281C46.2156 11.0432 46.3289 11.0432 46.343 11.1281C46.4209 11.5064 46.5625 11.8924 46.7324 12.0699Z" fill="#FFD400"/>
<path d="M4.07427 15.652C4.03558 15.5903 4.01237 15.5362 4.00463 15.4745C3.99689 15.4127 3.99689 15.351 4.0201 15.2892C4.04332 15.2275 4.08975 15.158 4.16713 15.0808L5.29691 13.9615C5.36656 13.892 5.4362 13.8611 5.51358 13.8611C5.60644 13.8611 5.70704 13.9152 5.82311 14.0155C5.95466 14.1313 6.10169 14.2471 6.25645 14.3629C6.41122 14.4787 6.56598 14.5713 6.73622 14.6562C6.90646 14.7411 7.07671 14.8106 7.26242 14.8569C7.4404 14.911 7.62612 14.9341 7.81184 14.9341C8.02851 14.9341 8.19875 14.9187 8.34578 14.8801C8.48506 14.8415 8.60114 14.7952 8.68626 14.7257C8.77138 14.6639 8.83328 14.5867 8.86424 14.5018C8.89519 14.4169 8.91841 14.3243 8.91841 14.2239C8.91841 14.1081 8.89519 14.0078 8.8565 13.9229C8.81781 13.838 8.73269 13.7685 8.61661 13.699C8.50054 13.6295 8.33804 13.5601 8.12911 13.4829C7.92017 13.4134 7.65707 13.3285 7.32433 13.2281C6.80587 13.0737 6.36479 12.8962 5.98562 12.6878C5.60644 12.4793 5.29691 12.24 5.05703 11.9544C4.8094 11.6765 4.63142 11.3523 4.51535 10.9895C4.39928 10.6267 4.33737 10.2175 4.33737 9.75436C4.33737 9.33751 4.42249 8.95926 4.59273 8.60416C4.76297 8.24906 5.0106 7.94801 5.34334 7.69326C5.66835 7.43852 6.07847 7.23781 6.55824 7.09114C7.03801 6.94448 7.58743 6.875 8.19875 6.875C8.65531 6.875 9.04996 6.92132 9.39044 7.02167C9.73092 7.1143 10.0327 7.23781 10.2881 7.38448C10.5434 7.53115 10.7756 7.68554 10.969 7.86309C11.1625 8.03292 11.3405 8.19503 11.503 8.34942C11.619 8.44977 11.6732 8.55012 11.681 8.64276C11.6887 8.73539 11.6268 8.84346 11.4952 8.95926L10.2571 10.0323C10.1565 10.1172 10.0714 10.1558 9.99402 10.1558C9.92438 10.1558 9.83152 10.1095 9.72318 10.0245C9.63032 9.94735 9.52973 9.87015 9.42913 9.79296C9.32853 9.71576 9.22793 9.64629 9.11186 9.58453C8.99579 9.52278 8.87198 9.47646 8.74043 9.43786C8.60114 9.39926 8.44637 9.38383 8.27613 9.38383C7.95886 9.38383 7.71898 9.43786 7.56421 9.53821C7.40945 9.63857 7.33207 9.75436 7.33207 9.88559C7.33207 10.0168 7.37076 10.1172 7.4404 10.1944C7.51005 10.2716 7.62612 10.341 7.79636 10.4028C7.95886 10.4646 8.18327 10.534 8.44637 10.6112C8.71721 10.6884 9.04995 10.7888 9.43687 10.92C9.97854 11.0975 10.4119 11.306 10.7524 11.5607C11.0928 11.8155 11.3482 12.0856 11.5339 12.379C11.7196 12.6723 11.8435 12.9734 11.9131 13.2899C11.9827 13.6064 12.0137 13.9152 12.0137 14.2239C12.0137 14.7566 11.9054 15.2275 11.681 15.6366C11.4565 16.0457 11.1625 16.3931 10.7988 16.6787C10.4274 16.9643 10.0095 17.1805 9.53746 17.3272C9.06543 17.4738 8.57792 17.551 8.07494 17.551C7.73446 17.551 7.38624 17.5279 7.04575 17.4738C6.70527 17.4198 6.36479 17.3349 6.03204 17.2036C5.6993 17.0724 5.38203 16.8949 5.0725 16.671C4.76297 16.4471 4.47666 16.1692 4.20582 15.8296C4.14392 15.7601 4.10523 15.7061 4.07427 15.652Z" fill="#2C43DD"/>
</svg>
